<?xml version="1.0" standalone="no"?>
<!DOCTYPE svg PUBLIC "-//W3C//DTD SVG 20010904//EN"
 "http://www.w3.org/TR/2001/REC-SVG-20010904/DTD/svg10.dtd">
<svg version="1.0" xmlns="http://www.w3.org/2000/svg"
 width="114.000000pt" height="124.000000pt" viewBox="0 0 114.000000 124.000000"
 preserveAspectRatio="xMidYMid meet">

<g transform="translate(0.000000,124.000000) scale(0.100000,-0.100000)"
fill="#000000" stroke="none">
<path d="M245 1061 l-240 -138 -2 -284 -3 -284 243 -140 c133 -76 249 -139
257 -139 8 0 124 63 257 139 l243 140 -3 283 -2 284 -240 138 c-132 77 -247
139 -255 139 -8 0 -123 -62 -255 -138z m489 -26 l226 -130 0 -270 0 -271 -230
-133 -230 -133 -220 127 c-122 70 -227 134 -235 142 -12 12 -15 60 -15 269 0
230 2 256 18 269 25 21 446 264 454 262 3 -1 108 -60 232 -132z" fill="hsl(354, 78%, 60%)"/>
<path d="M543 848 c50 -89 187 -358 187 -368 0 -5 -20 -10 -43 -10 l-44 0
-109 205 c-60 112 -112 201 -115 197 -7 -7 -181 -326 -218 -399 l-21 -43 104
0 104 0 25 45 26 45 -33 0 c-25 0 -35 -6 -44 -25 -10 -21 -19 -25 -52 -25 -22
0 -40 5 -40 10 0 6 11 33 25 60 l25 50 104 0 105 0 43 -80 43 -80 103 0 103 0
-118 230 c-118 229 -118 230 -151 230 l-33 0 24 -42z m-79 -142 c20 -35 36
-67 36 -70 0 -3 -34 -6 -75 -6 -41 0 -75 3 -75 6 0 8 71 134 75 134 2 0 19
-29 39 -64z" fill="hsl(354, 78%, 60%)"/>
</g>
</svg>
